<?xml version="1.0" encoding="utf-8"?>
<!-- Generator: Adobe Illustrator 19.2.0, SVG Export Plug-In . SVG Version: 6.00 Build 0)  -->
<svg version="1.1" id="Layer_1" xmlns="http://www.w3.org/2000/svg" xmlns:xlink="http://www.w3.org/1999/xlink" x="0px" y="0px"
	 viewBox="0 0 311 239" style="enable-background:new 0 0 311 239;" xml:space="preserve">
<g transform="translate(0.000000,239.000000) scale(0.100000,-0.100000)">
	<path d="M2416,1872c-6-10-34-153-47-239c-9-62-19-84-69-160c-56-85-225-263-249-263c-15,0-8,26,24,90c21,42,22,55,17,185
		c-5,150-11,175-44,175c-17,0-19-4-13-27c4-16,10-66,12-112c5-94,1-100-57-101c-46-1-138-23-175-43c-17-8-67-47-112-86s-85-66-88-61
		s3,27,15,49c24,48,25,64,4,81c-13,11-19,10-39-11c-36-36-64-118-53-152c11-31,48-45,81-29c12,5,53,38,90,72c83,77,100,72,72-19
		c-19-63-15-81,15-81c14,0,20,8,22,33c4,45,27,41,47-9c24-59,90-146,110-142c10,2,22,23,31,53c11,37,27,62,64,95
		c149,136,189,179,227,237c23,35,43,62,45,60s-19-118-46-258c-88-441-160-848-154-864c7-18,28-20,41-2c6,6,13,35,16,62
		c4,28,31,193,61,369c60,344,60,345,147,457c64,82,204,229,218,229c7,0,11-7,9-16c-2-8-7-14-12-12c-4,2-16-13-26-32s-62-84-115-145
		c-102-115-129-158-140-217c-8-45,6-72,48-95c27-15,65-17,257-18c194-1,230-4,258-19c41-21,137-19,137,4c0,8-17,19-41,26
		c-22,6-55,19-72,28c-26,13-70,16-259,17c-125,1-239,4-253,8c-31,8-38,47-17,88c9,15,61,80,116,143c138,157,189,263,137,283
		c-36,14-194-121-256-218c-43-69-67-85-55-37c4,15,19,90,35,167c18,95,41,171,69,236c44,104,48,132,27,183
		C2464,1864,2426,1888,2416,1872z M2030,1355c0-17-21-47-69-97c-60-63-71-71-85-59c-21,18-20,67,2,111c14,28,27,37,72,51
		C2025,1384,2030,1384,2030,1355z"/>
	<path d="M505,1639c-70-24-145-69-145-86c0-20,25-15,88,17s154,55,177,46c8-3,15-12,15-21c0-21-183-204-238-239c-38-23-41-29-31-47
		c11-22,27-22,85,1c34,14,104,6,104-12c0-6-18-41-39-78c-53-93-88-183-101-263c-9-58-8-71,6-92c20-31,58-42,89-25
		c40,22,114,101,136,147c30,61,36,148,15,211c-10,28-24,56-32,62c-7,7-14,21-14,31c0,23,221,249,244,249c18,0,20-28,9-130
		c-6-58-10-68-53-112c-64-66-101-66-62,1c12,23,14,35,7,47c-18,28-29,21-59-39c-25-50-27-62-17-84c11-23,15-25,56-18
		c53,7,57-3,23-68c-43-84-21-185,34-156c28,15,66,106,79,190c8,46,18,73,28,79c31,16,176,39,186,29c6-6-6-23-33-48
		c-23-21-42-48-42-58c0-25,33-56,56-51c23,4,44,39,27,45c-19,7-16,27,7,40c11,7,27,27,36,44c15,31,15,32-10,57c-25,26-26,26-108,14
		c-46-6-93-14-105-18l-22-6l6,129c10,221-9,225-194,38l-133-134l-46,19l-46,20l70,66c47,42,80,84,98,121l28,56l-28,23
		C622,1665,585,1666,505,1639z M626,1214c23-54,18-147-11-203c-29-58-108-131-141-131c-21,0-24,5-24,38c0,49,26,124,80,232
		C592,1275,599,1279,626,1214z"/>
	<path d="M1306,1541c-9-10-14-25-10-34c7-19-17-107-53-191c-13-32-23-68-21-80c4-27,37-28,52-1c24,43,75,101,105,118
		c30,18,31,18,31,0c0-22-87-148-124-180c-14-13-26-33-26-45s-12-32-26-43c-24-19-25-24-15-44c17-31,30-25,147,72c25,20,49,37,55,37
		c12,0,12-57,0-64c-5-4-11,0-14,6c-8,24-20-2-21-44c-1-37,2-43,21-46c26-4,58,47,48,77c-3,10,1,34,9,53c13,31,13,38,1,54
		c-14,18-16,18-65-8c-90-50-93-35-10,59c65,73,82,112,67,156c-13,38-21,41-72,18c-25-11-49-19-53-18c-13,4-2,40,23,73
		c31,40,31,45,2,72C1329,1565,1327,1565,1306,1541z"/>
</g>
</svg>
