<?xml version="1.0" standalone="no"?>
<!DOCTYPE svg PUBLIC "-//W3C//DTD SVG 20010904//EN"
 "http://www.w3.org/TR/2001/REC-SVG-20010904/DTD/svg10.dtd">
<svg version="1.0" xmlns="http://www.w3.org/2000/svg"
 width="310.000000pt" height="239.000000pt" viewBox="0 0 310.000000 239.000000"
 preserveAspectRatio="xMidYMid meet">
<metadata>
Created by potrace 1.14, written by Peter Selinger 2001-2017
</metadata>
<g transform="translate(0.000000,239.000000) scale(0.100000,-0.100000)"
fill="#000000" stroke="none">
<path d="M2286 1872 c-6 -10 -34 -153 -47 -239 -9 -62 -19 -84 -69 -160 -56
-85 -225 -263 -249 -263 -15 0 -8 26 24 90 21 42 22 55 17 185 -5 150 -11 175
-44 175 -17 0 -19 -4 -13 -27 4 -16 10 -66 12 -112 5 -94 1 -100 -57 -101 -46
-1 -138 -23 -175 -43 -17 -8 -67 -47 -112 -86 -45 -39 -85 -66 -88 -61 -3 5 3
27 15 49 24 48 25 64 4 81 -13 11 -19 10 -39 -11 -36 -36 -64 -118 -53 -152
11 -31 48 -45 81 -29 12 5 53 38 90 72 83 77 100 72 72 -19 -19 -63 -15 -81
15 -81 14 0 20 8 22 33 4 45 27 41 47 -9 24 -59 90 -146 110 -142 10 2 22 23
31 53 11 37 27 62 64 95 149 136 189 179 227 237 23 35 43 62 45 60 2 -2 -19
-118 -46 -258 -88 -441 -160 -848 -154 -864 7 -18 28 -20 41 -2 6 6 13 35 16
62 4 28 31 193 61 369 60 344 60 345 147 457 64 82 204 229 218 229 7 0 11 -7
9 -16 -2 -8 -7 -14 -12 -12 -4 2 -16 -13 -26 -32 -10 -19 -62 -84 -115 -145
-102 -115 -129 -158 -140 -217 -8 -45 6 -72 48 -95 27 -15 65 -17 257 -18 194
-1 230 -4 258 -19 41 -21 137 -19 137 4 0 8 -17 19 -41 26 -22 6 -55 19 -72
28 -26 13 -70 16 -259 17 -125 1 -239 4 -253 8 -31 8 -38 47 -17 88 9 15 61
80 116 143 138 157 189 263 137 283 -36 14 -194 -121 -256 -218 -43 -69 -67
-85 -55 -37 4 15 19 90 35 167 18 95 41 171 69 236 44 104 48 132 27 183 -12
30 -50 54 -60 38z m-386 -517 c0 -17 -21 -47 -69 -97 -60 -63 -71 -71 -85 -59
-21 18 -20 67 2 111 14 28 27 37 72 51 75 23 80 23 80 -6z"/>
<path d="M375 1639 c-70 -24 -145 -69 -145 -86 0 -20 25 -15 88 17 63 32 154
55 177 46 8 -3 15 -12 15 -21 0 -21 -183 -204 -238 -239 -38 -23 -41 -29 -31
-47 11 -22 27 -22 85 1 34 14 104 6 104 -12 0 -6 -18 -41 -39 -78 -53 -93 -88
-183 -101 -263 -9 -58 -8 -71 6 -92 20 -31 58 -42 89 -25 40 22 114 101 136
147 30 61 36 148 15 211 -10 28 -24 56 -32 62 -7 7 -14 21 -14 31 0 23 221
249 244 249 18 0 20 -28 9 -130 -6 -58 -10 -68 -53 -112 -64 -66 -101 -66 -62
1 12 23 14 35 7 47 -18 28 -29 21 -59 -39 -25 -50 -27 -62 -17 -84 11 -23 15
-25 56 -18 53 7 57 -3 23 -68 -43 -84 -21 -185 34 -156 28 15 66 106 79 190 8
46 18 73 28 79 31 16 176 39 186 29 6 -6 -6 -23 -33 -48 -23 -21 -42 -48 -42
-58 0 -25 33 -56 56 -51 23 4 44 39 27 45 -19 7 -16 27 7 40 11 7 27 27 36 44
15 31 15 32 -10 57 -25 26 -26 26 -108 14 -46 -6 -93 -14 -105 -18 l-22 -6 6
129 c10 221 -9 225 -194 38 l-133 -134 -46 19 -46 20 70 66 c47 42 80 84 98
121 l28 56 -28 23 c-34 29 -71 30 -151 3z m121 -425 c23 -54 18 -147 -11 -203
-29 -58 -108 -131 -141 -131 -21 0 -24 5 -24 38 0 49 26 124 80 232 62 125 69
129 96 64z"/>
<path d="M1176 1541 c-9 -10 -14 -25 -10 -34 7 -19 -17 -107 -53 -191 -13 -32
-23 -68 -21 -80 4 -27 37 -28 52 -1 24 43 75 101 105 118 30 18 31 18 31 0 0
-22 -87 -148 -124 -180 -14 -13 -26 -33 -26 -45 0 -12 -12 -32 -26 -43 -24
-19 -25 -24 -15 -44 17 -31 30 -25 147 72 25 20 49 37 55 37 12 0 12 -57 0
-64 -5 -4 -11 0 -14 6 -8 24 -20 -2 -21 -44 -1 -37 2 -43 21 -46 26 -4 58 47
48 77 -3 10 1 34 9 53 13 31 13 38 1 54 -14 18 -16 18 -65 -8 -90 -50 -93 -35
-10 59 65 73 82 112 67 156 -13 38 -21 41 -72 18 -25 -11 -49 -19 -53 -18 -13
4 -2 40 23 73 31 40 31 45 2 72 -28 27 -30 27 -51 3z"/>
</g>
</svg>
