<?xml version="1.0" standalone="no"?>
<!DOCTYPE svg PUBLIC "-//W3C//DTD SVG 20010904//EN"
 "http://www.w3.org/TR/2001/REC-SVG-20010904/DTD/svg10.dtd">
<svg version="1.0" xmlns="http://www.w3.org/2000/svg"
 width="180.000000pt" height="180.000000pt" viewBox="0 0 180.000000 180.000000"
 preserveAspectRatio="xMidYMid meet">
<metadata>
Created by potrace 1.14, written by Peter Selinger 2001-2017
</metadata>
<g transform="translate(0.000000,180.000000) scale(0.100000,-0.100000)"
fill="#000000" stroke="none">
<path d="M1195 1541 c-74 -45 -94 -97 -95 -241 0 -121 10 -167 47 -210 37 -45
74 -60 144 -60 121 0 179 63 187 202 l5 78 -92 0 -92 0 3 -27 c3 -26 7 -28 56
-31 48 -3 52 -5 52 -27 0 -82 -65 -143 -138 -131 -72 11 -101 70 -101 206 -1
88 12 137 45 171 23 24 36 29 77 29 43 0 54 -4 81 -33 27 -29 35 -32 59 -24
31 10 33 18 10 53 -39 61 -181 87 -248 45z"/>
<path d="M270 1222 c0 -13 13 -22 47 -33 32 -9 52 -22 60 -39 10 -19 12 -118
12 -395 -1 -203 -4 -381 -8 -395 -7 -26 -37 -45 -83 -55 -18 -3 -28 -12 -28
-23 0 -16 15 -18 190 -18 175 -1 190 0 190 17 0 13 -12 19 -51 26 -85 13 -93
31 -98 225 -2 88 1 163 5 167 5 4 36 5 69 3 l61 -4 27 -48 c51 -91 167 -260
209 -306 62 -67 108 -88 198 -88 66 -1 75 1 75 17 0 13 -12 23 -38 32 -54 19
-97 55 -168 142 -61 77 -179 250 -179 265 0 4 23 17 50 29 69 30 135 105 156
176 35 121 -11 232 -120 288 l-60 30 -258 3 c-247 3 -258 2 -258 -16z m492
-75 c110 -64 120 -252 17 -330 -49 -36 -103 -49 -194 -45 l-80 3 -3 190 c-1
104 0 196 3 203 4 11 27 13 108 10 89 -3 108 -7 149 -31z"/>
</g>
</svg>
