<?xml version="1.0" encoding="utf-8"?>
<!-- Generator: Adobe Illustrator 19.2.0, SVG Export Plug-In . SVG Version: 6.00 Build 0)  -->
<svg version="1.1" id="Layer_1" xmlns="http://www.w3.org/2000/svg" xmlns:xlink="http://www.w3.org/1999/xlink" x="0px" y="0px"
	 viewBox="0 0 121.3 130.6" style="enable-background:new 0 0 121.3 130.6;" xml:space="preserve">
<g transform="translate(0.000000,180.000000) scale(0.100000,-0.100000)">
	<path d="M925,1779.4c-74-45-94-97-95-241c0-121,10-167,47-210c37-45,74-60,144-60c121,0,179,63,187,202l5,78h-92h-92l3-27
		c3-26,7-28,56-31c48-3,52-5,52-27c0-82-65-143-138-131c-72,11-101,70-101,206c-1,88,12,137,45,171c23,24,36,29,77,29
		c43,0,54-4,81-33s35-32,59-24c31,10,33,18,10,53C1134,1795.4,992,1821.4,925,1779.4z"/>
	<path d="M0,1460.4c0-13,13-22,47-33c32-9,52-22,60-39c10-19,12-118,12-395c-1-203-4-381-8-395c-7-26-37-45-83-55c-18-3-28-12-28-23
		c0-16,15-18,190-18c175-1,190,0,190,17c0,13-12,19-51,26c-85,13-93,31-98,225c-2,88,1,163,5,167c5,4,36,5,69,3l61-4l27-48
		c51-91,167-260,209-306c62-67,108-88,198-88c66-1,75,1,75,17c0,13-12,23-38,32c-54,19-97,55-168,142c-61,77-179,250-179,265
		c0,4,23,17,50,29c69,30,135,105,156,176c35,121-11,232-120,288l-60,30l-258,3C11,1479.4,0,1478.4,0,1460.4z M492,1385.4
		c110-64,120-252,17-330c-49-36-103-49-194-45l-80,3l-3,190c-1,104,0,196,3,203c4,11,27,13,108,10C432,1413.4,451,1409.4,492,1385.4
		z"/>
</g>
</svg>
